<mxfile host="app.diagrams.net" agent="Mozilla/5.0 (Macintosh; Intel Mac OS X 10_15_7) AppleWebKit/537.36 (KHTML, like Gecko) Chrome/139.0.0.0 Safari/537.36" version="28.2.5">
  <diagram name="ページ1" id="pUQJzXQt7inrkiNsRxVd">
    <mxGraphModel dx="528" dy="358" grid="1" gridSize="10" guides="1" tooltips="1" connect="1" arrows="1" fold="1" page="1" pageScale="1" pageWidth="827" pageHeight="1169" math="0" shadow="0">
      <root>
        <mxCell id="0" />
        <mxCell id="1" parent="0" />
        <mxCell id="O-t2B1Meo6mThZW-3IML-17" value="" style="rounded=0;whiteSpace=wrap;html=1;fillColor=none;glass=1;" vertex="1" parent="1">
          <mxGeometry x="200" y="20" width="340" height="250" as="geometry" />
        </mxCell>
        <mxCell id="O-t2B1Meo6mThZW-3IML-1" value="" style="ellipse;shape=cloud;whiteSpace=wrap;html=1;" vertex="1" parent="1">
          <mxGeometry x="42.5" y="100" width="90" height="60" as="geometry" />
        </mxCell>
        <mxCell id="O-t2B1Meo6mThZW-3IML-2" value="インターネット" style="text;html=1;align=center;verticalAlign=middle;whiteSpace=wrap;rounded=0;" vertex="1" parent="1">
          <mxGeometry x="40" y="160" width="95" height="30" as="geometry" />
        </mxCell>
        <mxCell id="O-t2B1Meo6mThZW-3IML-13" value="" style="image;html=1;image=img/lib/clip_art/computers/MacBook_128x128.png" vertex="1" parent="1">
          <mxGeometry x="290" y="18" width="80" height="80" as="geometry" />
        </mxCell>
        <mxCell id="O-t2B1Meo6mThZW-3IML-14" value="" style="image;html=1;image=img/lib/clip_art/telecommunication/iPhone_128x128.png;imageBackground=default;" vertex="1" parent="1">
          <mxGeometry x="172.5" y="90" width="80" height="80" as="geometry" />
        </mxCell>
        <mxCell id="O-t2B1Meo6mThZW-3IML-15" value="" style="shape=image;verticalLabelPosition=bottom;labelBackgroundColor=default;verticalAlign=top;aspect=fixed;imageAspect=0;image=data:image/png,iVBORw0KGgoAAAANSUhEUgAAAOEAAADhCAIAAACx0UUtAAAAAXNSR0IArs4c6QAAAERlWElmTU0AKgAAAAgAAYdpAAQAAAABAAAAGgAAAAAAA6ABAAMAAAABAAEAAKACAAQAAAABAAAA4aADAAQAAAABAAAA4QAAAAAYn8bHAABAAElEQVR4Aey9B5RlyVnnGdff+3x6U1m2u6qrvdqp5VquJaFGDhZJMFrQAAdpgDnAEV4YcdgdFsHBHYkBFrEjMcMOAlaelpeadupuqdWm2lV1eZc+8/n3rr/7uxnS5U1mvhIlWlWZ1Rkn61a8uBFffPF9//uFj1DiOBZbbksCG1gC6gbmbYu1LQmkEtjC6BYONroEtjC60TW0xd8WRrcwsNElsIXRja6hLf62MLqFgY0ugS2MbnQNbfG3hdEtDGx0CWxhdKNraIu/LYxuYWCjS2ALoxtdQ1v8bWF0CwMbXQJbGN3oGtribwujWxjY6BLYwuhG19AWf1sY3cLARpfAFkY3uoa2+NvC6BYGNroEtjC60TW0xd8WRrcwsNElsIXRja6hLf62MLqFgY0ugS2MbnQNbfG3hdEtDGx0CWxhdKNraIu/LYxuYWCjS2ALoxtdQ1v8bWF0CwMbXQJbGN3oGtribwujWxjY6BLYwuhG19AWf1sY3cLARpfAFkY3uoa2+NvC6BYGNroEtjC60TW0xd8WRrcwsNElsIXRja6hLf62MLqFgY0ugS2MbnQNbfGnbzQRKIqSJAm3RuHwa5rGEyY9z+OprjgCM7aJnPl7PSTv/Zn5e9NmgXiiKOr9mfnJMPP3eiRXvSHn9vej3y/V+dKXcshSrfX0ZkTkfvFleG/ki+5X+unyInImxcQTQUsHM/BJiHSZn/AwDNdltR+2+mGUjNal008+ur7+5w2H69LpF78fn+sS+fcHZuxlnqzg0pOF//vzeq4obDiMSkyguUxkSC1zvJUOs4QHKfTT/fkKSFJbm6of/X7fRr9wx3HWEiekn33NoLNuqrWB8J8l6fXIbxIByiSZxzRNQnpjrqW5QULWNwYXkTlk3WtakClalE5yhVhxQIcnIVLWaxnuh7l+4f2wmCl1VRaGYawKkT/70e9nv/vRX5f4OQIzoUmxyCfxEZ1MlWUkPdnPVTSzhKvCL+LPDYfRXhkhR1SOlDPFowkccaQHwfWT9fliDoLnpYaMpVWp+mF3VbTs5/nmmyVc5cnkkAlQegjPXvV6Mv8qOlnyVeEX8eeGw6jUWSrXb/ec8CAgy7KkmFYJsR9WZKp/u2Qze7Mqyarssrf94vezl/2w+FzxL8ubcZt5yFf6idDr6c2X8PMVVyaHC+DZoBgFATjkmIm+t11FIE5KuZ/uSb6u+M4XQ/3o9LOX/fhZl5lzBFLAc7xd+0rGz6CZeeA/I9XrkXxmIRDMkqwlfnFDNhxGpTiQHRCUKER2uLVYIZDIvVLuFWU/LPYLX0tfUuuHOZl7b47SL3leG96Pfj9+1lI4dwhygCUpjV5PL/+ZrPBkss3IZm+zkA3i2XAYRVJBEPi+j4CwVdJcPYfi64eh89VHP8z1w26/8H5Fk/Gzt5mnF3O9PGf0V3myhKsiZ9EI742T+WWELFoW3kvnwvg3IkYRRyagzH9hxPH8ySUD38Yv8obDaFYHfY+EeBHtwXOChs3O/3chhA2KUWo0MIrbsCqBt/MS9/nGPy/il3bkDYdR2nkAVGIU0WcY3dLxcwvETSTPDYdR6nrER2+XJwDNqv7nSkMZ6FcR3Cw668f/quJcSj83IkYBqLSjsu+MVjYggPqx1A9D5xv/ew2yfvx8r/P9Luif3wTgd5HB+SbJdIwQN5Ecz7eYW/H/7RK4yOueMkRmnmzcUWJUwpRnFmFV2TC67Xbbtm2GVOXaIigwwtpvrUk/Or1ks28DT5ykI7VrXRL/6xrW3rfUAL0/M79cD9VLWb7qt66g3zguRcto9nqYK2aJLanwwAPRpCR75whk7hkPvcnX+rNomWdtnAsTsukx2u12C4UCyEOUKAkPuul0Orlcbl0J9tN9hq1MJdITBOna6vXc+ljMkq+X5Fvzjb1xsm9yVfxebPW+yvjsDcRPOMUH8XyuUgjkIsWSxZT59uaevVrryaJlnrVxLkzIhmuPnm+xAShJACX6wJRirkAnQOxnb/phtDd+ry77mEWhaeuvzeun0WxdaRZBes4Xo/3kAzU+V4wocgCsQDyfz+PvF38ThW96jCJr6npqdhRTLpfn5ubwoLB+dug7hkvoyCfE5azsWo1mmFv1Kku4Kjz7mdk26enHT79vqV98JMBnhjUF9PCMNZWtiN5vL+Nhc3kuBYyiTlnTYU1lM3R4eLhara6riX467jU5Gc7woOx16XzXupfEsyz6YbFfnb4uMwTCP6CUZPFQTMCKyzLql3Djh2/69ijKwKQ1m030QWU3MTFRr9dRsFyMslYB/XSfYSVTqvTQ91hLhJB+bYB1IxMIe9krSTnLKAvv9fTjv5dOb3wwiihkKajxgSkx+ZCkNZUx/y35ZjQz9jJP9uoCeza9HQWRqATzSfML2R0+fBjtLi4ulkqldUXZT8fSAGf6yDz92p2mub7oeu1xLwPy28jIrvX0Rsbfj47kc1VkGZ9XfKt8sbKNDjpx37W9X5vFxQpZX9AXi5vvIl/aoDIVygCdH/3oR9/5znfu3r07s4uraLquuypE/kSdeCR0MgClr5L1RRSEXZlw1bMftmR4Rjnz9GvvriKb/exnXwmnCNPT0zR4KDtioV3OYFyWUUZh03k2XF3fiy0p397nWvmie0wjcVDSvffe+8Y3vrFWqxGtqSglRhID0cnFpvB0VxGafcYQU4FoGMJOxFlF7PbEknFsqLsnyomOIoK4lVNjRbCB06BiJrUiuoW6opZsX1lSRUmPDcFeVN5Z3WPC3ZkMaGFNGG1XbLMj4bvV0B7I8QlY5CdCEVgi1lcSABerMyQG+BGpoSZUsawSy82HflUvDTAC64kkL3xFWM00+XJSHdTLkR6EIgziuKAWiRAlsWLGrhrkmobw9WRQBIowOxQ1FgU1yocqdIX4jff+5oMPPnjnZz6byztLc8tm3qANgAPBUpJIDLdWkjJExsG/1tMvyfc6fH0j8b3O9TmkL8UtBQq+UYYknv7HyqRUa2okDJ1hTl2kQ6bKXKlVFZa9Q2uIrqZY2wDcjOKMClFQCkoSimRaBG0hSsJtC8OLkykRGXpixVEoDE2Efko2jvd4Rzx3XB3YrvgVED8fLA4WzFwgfHXZDAesQGlExpMJWBI7HTFpFY5Y4vJYqG4srE5VSUqioCc2n00FluIg9s7OmCKxikMl1RahImCg7DETYVjp+ioQBbDjFIQhcwe2EpqtaQWGwuFcbOWshjDyQWwbafeO74EGDwZ19+7dtH/giMBN7TYNRvt9+r3hYJQ2GXglcKXmBp/YPTUEnlg1RdBiPf3nv2ku3qt3BhvijBtt2/mevxZOPDD2gkQcEd2dIpppL33Qa38lF+eTjqpqi4u5jmUUkrAYh23daCUiTERkG0PF1ng33BXu/+W8sVckbt6OfVFohI2HjcKXmvVP1IOjbV20tYEgHNI7Odu/fd/4K5b9N1dKiqZoohXGmNgKJwQQS9iLXzj7pbsXnmmZURlwRmErF/7XKz4QRGHOKGC2Qy/SHQ2Y4vKqGarB50/ddXf3kbrRtOt+yag0I/F/7P1FQ02HbGn4nj17loYpQkAabGnY1ACF+U2D0X6C7sUolX42VKQmWC2VbXsYIIyXatlC8fTajP7Qxyp2zVoQQwNigYbAgW+IO76PLaeK2K4IQ6g7tLgmgkdNklCVxsm4LzRanuEOkcwJnSpZCfzEiFsiPGDQhjiz07ji3bGYz4vJJ1rqP8yFv79Qd3ynGFfGVdFQRTUWVXWQOn72wNLdun/KKrwjVxiiDaEGjcAtxTYa6Ij4Me+Zz3XuavrdgbbmNt1u0Xz38uNXD16TNjhioSdaaryV9HvTfFEz23fP3f3l9l2L8ZIeawPWUNcN/68rfxURIY1isYiHp25obqvfJFk/cW7E8EsBoxhOHNLtxagWKUKPEyWOwBU4NRXhV9tP3qOIWnc0b3nttHVom3OP/EP45h8MoqCkHc3rV1leo6k0fE04um1ERV1bEMZk3J1Wg3raZiQT+8pAnVa9vfWhRwrWPlXRTdFxhfZMYP35M+Kjbi6esNuhaPuxCJdEQivSEGFJbTmL1tC8Iqbn/LOL9Z/bUdyW8/QkSgxRbIInpxQohTgw9WhXqdSMlUbR/uLRL+0evCyX5JS0+ZsCND2VJRZaLM4kpw67T6uVjq1EhuV4USdoNHgphSA7/vKZDmKsv6xgI2KxH0+bBqO99rK3MIRL3eDpxagSKyG1phJqkWFqKYJF/WT7kS9MmGLeHRKlzvKimgw3rLN3lZtVvTjYEXtSCFqlYuXnhHO7re0R/pAwuqH2uW7yoUq34itdt/ii3MjPK8YpLdyfT7otIQZz1wlvomsZf3Js9v/1RNd0xOF6aTj5vpHgjQVxc26grTp3Nrt3Lp18trqzEYjZyPxTrzFgd35tqmAkblUNBjQjFCo9PD/RQlfVLNOP3GXX/Vr1/jeLtwzqQxrnWSnCiz1V1bVIFUb8yNxjx7sn1ZxbUp12V3GDdtStpd0y3aI5LgcK6N1TYn7SS+sV12b0bxqM9hOuxC4wxSPbozImFWMgYkVLLENJVBRFH/6we+h++tuFJUW89Rftz95ZCQ/SnxL//BHxfb9jDYZU49T2tr43ia8Q6ghdEs0UlldtGR8SwUKg+2F+jz7wQ7FyQogdcaBatCH0OEj0T82Jf67muwU6VeIVjbkfHr/srdu1EREkoumL5Aa78F4r/zPJwpfOJGcKo746/LG5hZcVnBeVdUtEXk5URbBkxW7kqImSy4/YkR7b3TPe6fsX771ieL+m6OnHQ7Ml0Wlv1rXle84+XDO9ccXeWdh9eKluOwW+Qb5PhKDQoFk5YDAdFk3Stimmd7O79RfvbKJSSYzCsMRo1q9Hr9jRJFWvUBL05QX12WThZFQWnuZ1fuBn29u31ekmj4ja4x8TtrD8gsGoEInUkVgbcVWGpdx5URPucK7TFt4yPeRyUKDxaIopmpNVo5vXwf7SUSP825OiIYrgVfiN/7CncvP2lcGFrqEsFKxmQWckoBD97pUjlzvLKcoscbqtfCHunjC0nK9ZIsgJt9QJh9v68LK6vW1uD8xhT/gV7/ETBxjAogQsEgF8qVIScVJMPzZ/KBlwSsWhPeNXGX5RjZzYTQ/AUpVUm8gBIaTLFFeAm6ba5O6iYTT96FccApQ44yk964r029FX/4+paLVamA0UQ2eWOSeSpws+tDNRx2mmw00zrib8IOh+5P/eY4rT/rb6C1+U60zOvvjtA50xpS4qC8/UFu9qmyK0hZeuFu1oSWj5YljYTlQKkrqpdEJMXmgK028zNBDqgelPhk4zPQlPPV7VH9C6HWa1qqUro5l37xm5OUkGKAlL5IaNhGWDRmIo6mgk/vhll5cXTju17uzg0B8eU8YDJTFdERr5ZFt9oBGVYMU8ESq3X/Pjy8sndtbHvhx+/bh30jfm3Zww5/KW0m2Z4h9mPr009aATaK8Mf2xwIZjRvlAvzRrtyUD1g7SHJUydYbIEsYRJ4GldOd6cGtSV9jqSSRupK43X1aJc+U1MeCcVDj+OyPh5Xix30TD6HBZYyhqCSF/KNCUeOmaO4Xh6GRbDi+rJJ1utGToQU/XZXdfejiqvHRsXcaShr8C07vkM0PZDL1aMhAo7FowPUXFqK5ZpfVaxa7QUDeOpuuthgCNhG8ltYwyzru8sTYwKvZzPxVjfkGNXkukOw1h6koQr9k9lXWESibxWGLHGJ42pZX1JVZIHz35N02wztNKJhdBYEtVnTj3u64pWT155xUvqrWCgNKy2Q0/f9I3O9aW2ErppMJra2PUcpcgwipHIpjRbQR69Ff1OO2Ro23Xv/6RI2oyBtybL4uU/WM+pwbX7FndPzpbF/OBo9YlP0rBk+DsRZkC1D3jSjopQ1L7zMcCdkShXNb/RbjFqAF7NsH0HA1r9XBJMhGLQsQOdMVbqDv1kt808lE/fn08o1mIWr4BRJb9D2XFj6eYlc87WtS/OfQ5LS8cHjIbd6JHmQyfqz7TVZLe28zr18ran6qJQ6Kptc/2J2X68EL6eLNOwcyS5WK82DUbPIaAMo3Rps+nswGD2J2bYyU1UpXHSe+CTA0zsMwaw444w2Ua92BH71H2vKXpiJHEmz55uP/vNok2LEuAJnbNFI9KS50orcL28IxEQuynsozR6OW42FHGnfvU5BnrCrtYNcgaJEiviaF+zmlCZ6tEKRvWEGUuDeVjhJ9vEtpePvMJTvZyiPpk89ox/jHLEhl+Lu1859dm46AZd8drtryqGDrNL3WZcjGxPW38RwnqMb76wTYPRc3z3K60mlTZThlFQy5i9nrbP9AFGcx77fG7hhFPEaGnlH3gvVixviK5Q7RtfHzFXWDsJ1qYf+IyIm6pI6I2nbbB0i8i5W2EMGqQfQSBtDw2DJDbPgdEU8CuITz+pFCjyvwRTTc8u0Uw+Ki1ivXZZOC8eeVE5GFHdoFFsfOX0vXwDrvCmzaWHF+7Tc/qQN/SqbbeJOhMTqqJZDK6xXvR8oXcOeZ4vqe91/E2D0XMIohej1PVIH/WjNIepIhqoYbtx3z+V6DvFDvOP4rIJu3o2J5YqrXZuZ8GcGhSDoZgquk/dJdqzZuTp0nTGIDk+RytPSeLQ4DNwx4hIPF0YdvG0TLsur7oTO3o3jGjo0odjbeegqjGka2g0O8lKYfY2MMIuM66x2K5tu0l5mWhFiqX/y/I9c/E0tf03/UeXlbnAV2/NX3+5cfkKcOv5waIr1DKNjUvXXQrjo98ySPQ+vt0eRV+sPaIDvuxoYwcft489wFR97OYStTXzf/6H8mJ9obx9p9sVU1580rWYNVXcUnBMPPk1/dbLdG1l4b2pQ461KP1Ur0Yqq6DKkX+NnfsSNtdkRVPuvkbnpZX1z70XijGriarrmVGhazBtFO108kIJdIY/gXioerEfG3FiRhhnRnXfMvaOv1p8Rg3MZ9XDjyx+/cXjt3/+9Oe1YsL07Zv2vzYfVURBdMOl0Ax9wy6sNKD7sbrZwzeNHe1XN32r4lzpBGT9+pXAtujGrHabefKRQhB3aJyGTiSSgbNfzLkPuSe+LA7e2Tjw5Xq53BxikVMyonWXDz2eggWj5kf0rqB2rh5ExIg/1lPZXyjQc6Hh2vWTr88t9AMETYgFkdTbHTWk0csMkLItnzYpVFKSDRvlAoYHfFY9pW3gSLxi8rVFK6e5RqPQPLz0dOiF95/8ms4UrVZ+cfEmmr8sNgxFa6m9yOIo0ztvPfaTZz/+L2L4eZftueIVBNCCBEzU1Axt4kFqBPajLyv0tU8m/WRaeku0RyVNSJ0Rg8I/vr3x+NBdfy5UIyhO6DMnGrl0PcksCCzWZkpC6ThFv1VguWkjzEWNwc/eKVrV+bSXHa5YuHyjJXT7iXZY0F3P6/hu6ORE101mjSiZtcxyd1mEjat3iuKRw3mWx5XtT5w07lEaJxSX0rB0LvJqQmkrSj1unIqU9l88fcotb2sr1vD83C9sj2aBZ7cAw92O68dBzi7YYWHQGG43O6Fay6v6HZf9UGS4phJ+ffFLf9f8wODekYNi9keN/21K3MwnxMyrHY8VFMvXzyzbESuk0gUKfGA6PUNGSOPAiy0l3TRLFnJYVEqbJ3LmmTkpVbSAQ3S0l4hPoExLNCj008sFCO9bl12AvJ+TLBAo0ESOcsXT1NQUu+1Y9cOAkD+0T3n8/tP60EQ04865+mvfNvnynxRRfmRIG6aKbTGJEyXBnPfUA/Wvfsmxnu46Ijh2ILnpsiVHGxROoAvTEkr1Gk1cJqwTCr0ydcoXjhs7tibG0ZqmCrM0IcQb9o3/U81lclTsmvyDzx1810v3D5ZEmbkfmxF8dbkT58uV959s3HNKaW8TYkRMRsHtQt/FVKnlmmrOtHXFj1U/nWFXjNi0c5Fuqq64ZfyWsenti2ZtLq7e+cjnotG4wjTBjftSw5uaX6H77FoyOewhbKTTFrahTM9OSzkMDAywu8u20hWzm91teoyiAFbyym8dU8oifNRD4L7WQpgXtY//Ubn1eC7v57xu/JI7xBWvrzOsJNLZJ2xOyMpSMWMHC2f+8X8OVUQu6CZf/mfl2psTsU3xVT3pjhksd56NklPCqjLNlDiYYBFbCww06d0h33aY4B8R4j/uKz751NEDkS3UbccH9n/48eVwT/lV2zR6QYHInbS1r9z39F85Vy2MlOKuyAeNn7hi8jUDqui2k5zpsShAZyhKtWmYwhXDUSZddqWiiquNa6+Irj+7fM9iqdVsLAyqe2+3XrGnvCONl9q1yFTNnFq0bFWJHVkFjY+PLy8z42owa4+/1eykWN7kbtNjFDtKTSSXoqEeOReKUtTCUOwtqbUni2bsNYRWGFyYuINeDuP5BeYLG65QLK/IKGhUnBgayzHPyUhVVTvyVWX5Lc3xiZKqVnVnSNQMq2zkmehcYoxIi8qsK/WSQaandK2rKEUAYDT9lxfNd23TP7SoHJipHnQGDlqDnz8dTUw3x8q5euCerXm+ujsdyxoWuXb7Jw3vnSMQbHXcVikZ9enVK0pTc+cTtokIPKAq7XYx274Qfv/+N37j8FPx2LQ5brWONl45+mZGT/WI9ixfmheIbtOteflEtSzMJ4NYrNSXm+wwqzSg+GiDPvcAbiLcXrT26HMlI9ApNzBBEIxS1wNZqvtqY6H6xU8G9SOmFkb5QnLbGyfK40x4qgmDS6qmMAWutYU1L3aJ4Vv9/W8RmqFjB1vT4bOPsxRO9pZYFC/cY22v1m6KFsPkfoj1zSf0v9XYDFk1l2OJPwMBUe2nh0Z/fXzyZkvNW4uKthyY7VN28Rux9mwjbKuBMeUo4dzE7PFfH9Pfd81IsbvQTJp6YYClKGbUBOiJbcTFclQo4eGnGbDTJHZyzssGbxkRlcWzS7XlZj7M3bH/tUbLYfohRbDwWbqCrVbtUBti7ak5MzvTcTsjIyNhEFCZ1GoNx7kUxqQ2PUbZ50nrk6oNy0Htdvfdd9PYZ/PugB2pRx+a90VzWUzrY8EVL2bR8bB/ciBM0olLxaVRx/oQhlFb+rh+8/efXHLONErVZHz+UC2pLSttMZTugHJYJufnt/v2HuFcqTExoDZMZtJVzxWGGq6ME7GLI1J0N37bgPita8r/cWBw59lFtaakw1ZVoYSFAWM4OLr8g3vE702V3pMzhgVH3gQYdDOxWhhRLQqbrBsxxBFVOarpc7pfd1k1sOjVYY6u0RXxjt3zO4dOjN00cOuYGFfZU8XiKRWgds26nZvOJYci76kuy7SHhoZydo6TWviyZAO92930G0XSslysLhv5IkfZeYQPfsqefhYiBZ096W/iX+vSiZlyWR6n8/73v/9973vfiRMntm/f3lXV/OxhUbYE2+j8fK0yVo7idiLoSAtWG9Ew7JpCz3kWlsjTGuzCY2gIL53i3EJp0qY31EkeyTVvBMvJYdEpiGRZGNuEuiuEk0DRWavHeDyrhOjChFSybC5JlyDjGH+6v+adXuoM5wYSFiGrwWV7SnwMN/FJNNKtJ14+x5C/xsYoRSyLxZHu8JPmEx2NNdPCDnLX+dfP5eYdZbTkhZHVOS7m/Xh5xu1WcttvEhOB75AJC1s90T7UPtg2Wt10Ok29Vb3V0p2FxfmX3/bKI4cOzc7Mj42NLC81NDaafNtJ2SJJpN1PzlIp8ugo4siYtB9oU60V/oUJuWgZP1fFo8NEXc+TttfRo0fB67vf/e4PfvCD+y7bF48NBslQihsq9pCl7NMFY8qN1QVRsFVzhNUjsUq93xRWoTTUjCYriujYIu+l4/157FRbn8wVlxLVUG7Km+rKGWQt+kyJaChGWbTZLpxORoWNQCtZM5EYVupFNu9HY+NG8qaKMCqG4i2JETZ/5kBfYWVPc5LXlaBsBWI+DguWmos8XyuDsWu0/eleFBwbrVkKoFTS/aLtWNONncqY0dl9VU6rE+KzSIs8qQpYLJi/zrkxrfXpPwWsHAyjJOIrBaBYUZpA9XqTVaR+kA4XbGq3aTDaz44y8MRBeVgKvnWqe8B6/PhxdtkPDg6uqxhsA/rjidnmSVeD58rAzbQb2wwThYKVmmAwGhSs2/TPWis1a0pr5Z5ShV3qqaekAa+Cl+TjSHWs1Cb6qhno1nb/TFdzWvTOhBjI61GzXi4W213M3xgr/QxawioL9GM/ibpR4MfRyFDguSBfc/QcPTFAawo1b9pd0QzTJTIa357HkijyNewgjAvW+iqjJrn//vuPHTs2NjpG+4cBWsY3VY3jU9OZYawgxZQWVP7EQK4rH94iDdkTJYlMxXPdyBcmcP0CX5i8n5NckLV0UMOzItVUoPSf1qUPpgE0MfGgMxBAErSy2DRLjldxWJvfaQVeK1F8qyicUqVZBc24VKdJehwfC5T457anTbOgG/nYdfNGErSrLK1TDPNBP9LsAmNSQegZauK22uxRSlTTiJfYPcdW6rQfD2e6wTISDJ7XaJkGrQwayNT/jmrlvSDptls5iyn9lYF0hUH+dDU+DSPLybuttPu/1lGBUBY+UZrmnC9E6WiUU661MTddyKWDUaAGklIEGQaefp8+bzEVMgJIJT46I2TXjp2J14z9RqSAsaEYrKj5bqSPmem5u8RkpcrKH+3PNEl+17Veu9tqNb2uXyhWLJXlyp0k9szKdhaJBC5JWcnkFAcn2n5YHBie7cwZaS+cZX8mtTMboIMwCqJYz+ecomMbnDix6HaWdM2rWLFaEI1oiCJgzywzHVxzOy1mixw6bYPrL1Flvo2+PFXE/DwzZekVgSSXh2FtOlCuYnjTYxQASQyhEoyH1Cshq8qZ/ZToBJpyPobwFfwlzdoDqp6PzSLrjGMv1hpLo8EZMw7axTyRdTMdXAeotCg8t4N9qp6YHyjkB0pFz3Y6VrEdOTlLVBydJmriNuOADVE0Jp3EznvtBdOtCa3icR6D56l+S01CU1ccUy/qKsc7zMyd9Tr1YsEarBTgywuZ/uLjwVrrfBCBotpgmJneTpMJTqGsP5zEkJO0oHJ8FHDjaI9Suqzsm9Sz6TGKCcQBygyjeFAGWFxXJbTVUsytOFKBNpSKIkuTe1r1WlCbLyve/qHczVeUrpkYmCwa4+XpFPda2oRF3TR6+RICP/qSuOn4waefOHDyVE3UcmP60E4q5vlmXU2BGXNALXtUglipLy+EzTOqH744ERMjYv/eiX27RseGHIuZIJ/B/fZQxap3i9NV58Dp9gOH5h6djhvGqD18+VDrGAMKAQeZ+N2WJnK6pnM2f0SLd/11VXKQGDtK67zRaMCkLCOedeWwiQI3PUYBHOgBbSBV6gMPmJNIXasJeU6+hCnRcMQn8oljyhWDpVdfn3/NXnHjZDhcoCpe6HiuaZdYu0c9Kyt6YbMMOl2896PK0dJ2p/vKfU/WB37/M88+2TjbDZWyES8nRYdVoZbthkbbi6P28h3Xj14/4r/7BZNs5TOSrplMG0pHUTtMBgi6ZuFczDoBW3v9jtHWK689OK9/9sEjdz9837KdCxPNyVfMQq7jdpmhp+lAz53FLWsLRQiGlpoBXAJWWSgCsayUbt34myhw02MUrQA4rCbKkNUceJUV+rpqkNGIQyoiyF4FCn7nvvbLrp543bXl0dyiWDpYnWkFtrAHKkoHoEXpX0+fCUyb0bweq0Zs7ypXolbVMYp0iGyVNcuMytO/MVjzn6g6+6Z+5GWXv2aq2akz/sr0VMzSPEZo07FVGiRQzQ8poat0mjlvoWK3p4ZLt77KnLu++J57Ks8cPxt0VWegQDePEvHdsS/PMJl5WMdRLqoI0MnmWF4zJwxkSXUJdJs2PUalHUU3KAaVAD4cHmC3jiYZQFrpWknN4Ze6pN32wbccCKJFv6kv1JnpLKuVUZMRUVadBEzbsHU9revBAQsJedJtqhrD5cQPmBItjS7HVrcw0nE9ETRUJW08RInOLCnD+l6jO6hUC/Vnu/Sq2K8UmSxjVqIce6AShd13dLSM2GvrnO+gR24YtVgAaBbLl4398NAL//5j//z02arKKROc6sjolKHTh5IlXVs0CkKheNJzwnxSpaRsXhLuoo17pZruEaLEFs9+Ul03MgoDEAwNSkRiQoAs6pEVuiQFTaKBWlwKzXbVFIVOoneKnjFoi8Wld+5Z/sSPPuupjmcNVtN1mAN62C3F1UK46C+fKGq6pdqx5nR0p63poRYYet0x5ocZdGws5/V5t3NcK2kNhmbtst5mpjU9w4eJA7ZBaywxTdc1jXc5Mqfl6NGQsCbD/KSfL7Pe3taqBX2abZ2KmIvEUkd1XdM0cvlC1C0vnXi1/oUPvLW4W+nMs6tJHyiYSdRY7KhpB046vhnpVgSZXipCOLYTgSANSkrBiZAJQcpBPvsBvZ/wL274prejiC+DLwr4jtLEjIUJ5ypFHCnanJt/yb6BvVOayhFlGJ440NtUl64Sc/KSYxVHzLzlR8seJzFh8MiGw/g4akFhWCeYq5UG8x6Vu21Z7aWO0Jd8xRuyVHYya76ms3QloNEZldj6p7dipT3UbYpw2e/mOUavqRTayUAYlcGK09Urzu6i4cZBq9tqVCqDnCcauswBBIaVu+lK8+mjjLiqDFPZVjpo1c/BXVb88xJIP4IbJ/xSwKiUprQQ+DMNrS/lhGOZGqoBhpyotvyqN2y/amfHSAfQlULOKqTbQiOtPLEYlw4uqY8dmX7okNNwgzptvTDiDPyhijM+ODpYsF/+gsJuZ8AJ5hRrgEMmhmy12+kwj1TAEqcHh7Fgqq2yyHSArcqKq9oP+bccPLV0z9NnHzo+c7JBJV8STkU4zn8cPnrT/okXXl68aqyktA5FbqPLKKpmWJFXsMJX3bjvU8dnIi3h9D/FZBULPbb1xysyIUikSiFkqF1fFJsk9FLAqNSHrM0R+7kxyiBopFVVdmN2472DuVv2qKNGTW+bHUXTXRZmqsIuzwblf36ifteh2uPH5qq5PXSBQiUX0jIJY3Xe0+fY4hz9ty/Nv/nW8ddcO7ZrcDxfsZhl8hk9NfOc18A2ZOZN1ZAJLVV1Co+c9A+1vPd+/kDMxJIxICrbxofYXMdOEgZM259+OnhyYfbkfPWnX79vcmBQdRcaXU9xKk7sq1HnysnhQfN0g8/GMGMGnjh8rM/MkazWZSWOBOTPLYxulM9QglI2OiVGz6EbuuJsyMAoJd3OrTdPTNjNsDpvq+OxVWo2F2zAaw7fc7Dzoa8eO9hwSmPXlcSsonJ4TTqcThaB3w19l5l2d+KGzzx17L7HH98+depsy7AnxyMnWahVbbMDMvN2XhN5jl2qdaNPPlCvnmzkSnvhE4ip/rIRuabwc2po2cnhnbccXzjSeXj2xt3lH7iGxS4dTi7pKpwNgSVu5rXugC2Otzi7zHabLQY/+wldCoGC49KMVhz+fvE3UfglZUfB0HfUDUeYcftCxPKiYOHKnUOmR1/eS4oKS6BKA+XY9c+0lXsPLU9zJUJlVLUHoyAd9wlY1rEyv2oYA7lSevvRKaYC7Cm1MDkTRa4RLMws0+/2/a6TV+jtR143CNj5pmhq4ciysdSdzDnsZdOw4kyp+km61S5d8sEIKEMGxZGl6tLjp5qvvtx2GH01nVA1fYVT0DpJ2Mynm6jZRlWIaWzEHkZ9XXhR8BV8/itGibaF0XVldRECUQ+5onUcfVv5sx8fkbKoiv2xbylqy1KXEi/U1YLLqpLWvFFxOpFX77pH56pO+XI1trz54/6IrpqqQX9aSVeicJBNzWuG7XC8MNlquwtLUYfVSfk8E+7lPDvuMblOi31RSsyJt1xgmitWItMu79pdbB5m0R3DspzoZyhGqDPCxS0MWnf+qDkw5OUGZppJV803ai7jR5qpuHqBg/DTjZ6sTuVk1DDWaedyjA47CNZzstQZKFf9XC/Fpgm7dOwo6gFDtMPOjdEkbiis24zAqNduz6rRqOWMduIuB+3ErWbkKcPDVwqF88IapmZvHzEbnXTWKolZGLrSqebQcs1m1am3fIpBTtUqCN1k6ZuIW7rf5ZaGoJnTQt3Jsagu7sQ1LY4anXaSH9SdkXRIKmFDfWJpNDVCH+PsBiMljbMklzou20fM/FBS00OfBU8u+0YYbjATIkZU3n4YlRhRSpf/nwtbqRX9dl1PPOk/V4LN8O6ijY/2Ew4Iy5yMsyL2vu0qIlMLE5OFP4yMMmENpAghXCaX1MAuDiu7JF5iKw+P6U/54W4/t09XItvUa3SCwqtaYpwRU7Xz6H++fWRveGphZv6ksTMO5g2L9fDmotBmE6uTK8aO46qRSy+mMsBhJYwZWcLncIZmV6t7lQ6XKnDzEreQhLqwt0XqSEkvco2NwTJ7r2uGtqLk6wpb+AJXU/K5wSfyo7Nd9TKn8JLJovCPmcNBYZCLo3OTy6dF0n3UjT5/0isUd9sLdOs65mh6H0NvuSidLBoexkQpO4OjWGICJUDlWwoui589v01m9f+kIkg+ezNaHe8C/t5wGH2uyt4r5YwmgZrSZrQ7ZsrSFkdOVkM1F3sLA6zX0I+hY785aEYD+7Zb3/ey4nXbQu/Yofmhm6aVYV+okyV1V94123OdVjWi+l/ZRwEm5DcgnzJT/L05Sj/bSjk+MvIaUbeuBa7NnWHcDKGEA2o+bJx2m9OjQ5wHlRNxqd5ohepcpIdubseROR2LHHbmYg41yZfdGttC+jqZb2/uWVTJWO8ze7XxPZcCRhF9Jv3Mn4m+91UaGM0GYSE0rcjynjjS6BoDodoq+MwieabFFHu6+XfCVt94044fu23kdbvrC6eP0RuxyxU2btS8WLUMx0yS7gIYhTKAkB7p5yeuN2vCwTGuGdic2BwqTPKzC8ri3OlW119q1PSzR3ca1dtvEG98+eWDOTtqJ12685UoLNlPNYe++FiQ04pqMBsWlI5VjrvpGoN1XW++0t8bkiXJpJGFbHzPpm+PSqEj6Mwj/VJDa1WihsuKdnk6p6T6JxfjQzXjlqG8VReem3MM18jVIjZr1go7c2Pla6zrJqvXHbW//OgT3zwSJyNXmSPbqrXFnLs4UdQX3RR8dPDJCI9sb1Cl9uaYsYSnFUSjdKyCFvflKT4r7yNu47H0YK+x/LY7rnvdC0YHgtPThw+NDOcLYyOn5xbCytgnH6ve9zSNA8uxustWrhEog2rB55jH/i7DpfTwJGvcKvn0J7AR32x6jErpZ2pY0cj/ohL5KlOSbXJuje0FLQ5VbMX2xx+eHnrV8P685tW5CyfkpjimvD0ujomnB2y3MhJcn2u9bvvUnUeCTx+cfnZuUcsPJ4OTZ32W2LWhTOMPXDJXDkZpCgPZdEnAilvF0ut2G1dMFJR2I/JoM5p07seGckUrefW+ye5cna19tHKdCWW509btwaGdr/3wvXd99uGopW6zaZjo3NkQpctESNgHo8ARR87yKXnInjBDeMbSunGyyBvNs+kxKuWOWDOP9Es1ZFrJ5J4zi57POYpBRXc6ZviJh2enJvcWr6oMD9USv8INIhYLkuyFhDV5LW63Gck50WWF7rtuyL/p2omvHG5+/NGjTy4XkspOR3PBJfSp6yVx6cmgINnAxEoefmCq9YoXFAsJKwU4RMphxV+lFFh6sxsuq+UKI67V2SVn0tHGB5+ZG73/7tmPPR6eXG6ObS/5DdcPHe7MZe1oiyvJ/rUpkZXpXz2y1DwzlzGQiYJX0v+vyTa2b9NjtJ9416rhW0oKGEzvmJ6udzQzlxxeHvz4Y4yYz7xtd1Iql8L03sYOZzVaZiFmi75SOVWdG8ipw2qTuxF23zD4yv1X3vnE0he++fUl60ruM2EVHHZXrmEFo5g6/LCUAQLPt1x7Iadyg+0yh4tyI4TRdbU2C/G6gWMoYdMynbgyfLiW3H/A/f/uf+LJ01rgDJu2ryozgWXHbtnxaiwHnU3CAVYW9HGAjzfyuSoKPGTQlP5VETbyz74F3shMr+JNgoDAb6Hhf50AJLA3frfDDZuhGTlB1TfH9cLUvoePLWvLh3ed1W6+rWSXGiFNVXfAiIdCpZpYfjk3GIVuze2yjtMRjevzwZW3qD9z7Y7bP5YOcsnRLjmyQy6si5MYBRC8lflKrlr5bXVryG3OGSH3mFgd3Srl87F1VglH7DKXNDem2+rXT1mPL049WTOWKqXBwnhZPL28cCQqX22Jst5ZMu04YL4+PYv6+eUuWr8+AxbyzrB1Do+ss3ojyBAwgQHjyWZl2oVE4Gd6g1Y/Z+pGG7y1okrOd83x9sndg815de8PP2X/2n2NZxdKY3pl0omtzhlbTQfTF9hVHHUqSrtiM2Vvzja7zXBhoLz48I+f+ZMf5ATTs4uNgtctlnS10ZhWOdI8PYqBpfYMEHDIvcpdDBzhxJ+/3NJVwywXoiRkz0cpUYM2Z4lzWWSj3U6PTLmi5L9j3+x//f6l+3+p+OE3Ld4UfrXZVuvJzUNR4piHny1Hc+WpiW46mLCukw0Pvg2+k/RC25XOHDEJkU7KY21aGU4cPPJJWqjJpov80vjZT5wXIPyiYfQ5LxvSlGKFMprI6Eu5Zz+lJwvMPLsq2+86WnrXJ7z3fNb7xpnEyhuVvNv0l/YsP1tS4wVz4rRnB3F7shwX7dyJuum181eMiV/+31+wzejkdGO+PTfIaT1tA1CkDPS0GhkZJZe9A8pAWC94rWIcWGGL60YrelxhGL8yRhMz6Haqvr5sTh1b8ieNzg/vcX/q7Te8dn/OrD7VcdtmcXggn6/PnDVzHLj3vHObvuKQpgK9YT/AqMRcFrgWrFkIMaVfelSDM568qtf4h6ca957s3rZLvOFq69YdFdXjHB5T4+DaYsFvzk7PznM3w7bRXfUT7euviAYq3e6tI//t7pNiVOn4nuU7nKGLBeUrgSUoA1DuHuH5qVOFxxKXtqgR5YtGSTWKVmlUsdvbC6Urh4edznSZ8QGNO88StbtoNBu3XV6cypmW3/inJxc71sSQzQRqK9EKLJR+voH0EsEoaACjtAul/mQNJVGyCq/EJLwXnTKaqB6tmMw26fNq6fHO4NGjwTcX69eU6m9/wdU7S+5APNutLSd2sbjzSoPFzEefSLQp0e4OLJ59+63Ddx+qHYyKjUY8ooW+rJlS4HOOZLogmSOXye7vTg2opxsK55Yy4x6le5IFK0K1bqV58KffcOOtZe2Ve0xj+Zgd+DXdGp7aa1SffeF4yXzd1NfOHj7U8ocVdaTIteGyfM+v56av6zMI0n0BoxKCYBSP9MunBOJafxZS0k414/Z0rDENtM/uTETuMzPFvzyw86c+evYDD7QP1fOWU+Amu/b8SfZPVYZHc8VONOMVuTYnd+gd3zfWObNUMre72hJ1PX8ZlmAIEfOcHLTzrNJ3BkqF0Xyew5cNlkYpgRXlxj/4pZM//uETf3bXvDMwNTRasZ38DOv6g6ZYenZ3buHNL9nDlujQS1zGoFiO//xzlxRG17ZHV8F0LVKzkMOF/Z3yaDkvCtFisDwT1qtjhn7DtmExvPP/eWj5P3/0+GcO2eXytvGimQh/TimquXZiDYvCNlNrvPRy8zIzdjSjY3HB+Lcao9/qrWBN2cnMueats3Gb1c2REQUFIxrOiUEjHrH0/SWW4VXOjr7wLw4WPztdmJ1t5xR/IOYSvPRQdNVfetONI2VvPkjsZXZ6xusf9nRp43bTY1SCjCcTPL12NFNbBtPMZGZJej11v5J0AqdTtejBlCbbpckwqVuLDyTd2aGp3bPm/g/e2/2jLzdOh9uL41NqshxEflwqtDgHMqoM+N3vu27Qaxzz7Ao3P6ZZy2fqWzmEDONqORoHN9uDncTmRAc/4WBoNwyUVse3uAFM0Y+fXL732eV4YBfnBSRzh7pxoWuPse1kr13bXw5Y8hzmh3SlsULy+fXY9BiVLUuUJut3qb2sAbBKmevCVMZ5tTg8ocZ1ffusPuVrim20MHfAM/Cqg3qXFaOPz5ofPjzy8ZnJBU8fVaqcJjbbrVaFmFvQue7h6m1K4M76Wnps6LdgukJ35f4PTKmgHcGVn6bfULqLpr9cFLUBpTVmeKeTMTuf36nVrh4O54+f6Cb6bM0tjIzkKxPzrtH2I7M989Krd3sQzZcNenDPP7fpMUr9Tm8JxTHlw5OxPZ4soFxXlWA3NnaX1bBrnZ4Pc0n1RFnsVgslvXtoQXU477mQLA/ES4W4bfie2ajnlmYMe2rZz1W95Oord4j5pxefetBSBpruiGEN7tC6kd/oFOJO81SYjEa5vSPBGXfxRCl0i0GS46RmVm0aMceKlmO/m7usrg/Neklbd5rGwKI62KpsP6UVCkHVrB5lUcp8bt9Dz4pxKxkpVY5Fl52J2lPWCHeGhhZ3NxSNeCFcejjq7ly3XATKb1VKg/FR2X2U3ypfbzZtm7K0sqqQz1U6SVAml89+WVys8E3fr0dwyJonapCec4vSw9oFbbtcFByYYPmnZ57pjBd3j19/vG6mR9WZnInIXaOR4ndjr4lt3Kk1pztarjzxzEJ9uDBxvFZ1Q3/ECDmbhJPJcgb3OHQs3WBfXvqReHFxaIebGNwDFjPSxFH5atLlxFmRG6wfZNCBsTFdUTW+KZ+7TGmehFZxWzvQax5HQIkbrhxsc8e4Xx01nbmuq+pF2gBdX+l6LjGL5UF/KeAYnuebu3QwijWVGOV5Dnvg5DpKjTsXOFTEvP2WyQPHxKPdzpkZ69YKJzwpjaZaj0xXsRPD0cxBrWBWT9xtDl7m6ZZWHHbbzdHtxWptfkxtJmrJjbp5I9LClpIbb3Q4k5nZGHu2FZZMuuacNO5yIWjT5VBTToeqZIYKq4bjp0Jvnwbm6bnhqZ0MGgSt+mV7pqqtWpnD96O5Bsv4NU7yUURpZH55lkvOVcXSLM7Zfd65SwejmLHMjp4DoxqH47gDDFA6bu0Hbi6/dK/zyYONx+6fOeiPkzw9ZT6JBhIPQ6l3O1rbb09cZRQGl+rzamNhW6720v03FMwzwIT5V2EV1ahRtNRW4hydqTmm1bWcYZtzSi3V9brLZ0dM3QZmLGf2k6E8h5EpAbtCWRzN4ZIcT8quKM4sv/bF9fpS7dTT+wfc26auHGJSNSzUuaHBKCRxi8P1PH389PxTHGLebPg7K4O1dnou/vPKbXqMAiw55ARGpSdD6rqKrLtsYCoy0OhWp7erwfVjlRHbOmUNvu8bdINYUcph9VwVAqV0NJMB93ZciE6d3J7v2u7iT90++uLhzoiqNBga0ruaPZi0m5wg9myt8NTZpYI9wTH03fmTml4p2fbUoPXWl+4p5eK7Hjz4tQNHu/Z2jwYvq544b9e0OOWMNmrIPbb+grtw4iqn8Yu3Db9usmUnnYZWirQiNzl0fU6kuvLRI+3FdmRWbK/LZuc+J0CsW9RLJXDTYxRFSFD+G+2oz3XMStTWuibVdKddCvwbCs6Lrs99/7X2iar/6Jn2Q2eDJ6v6dFBoaZWOnt+hLo9tC1+1K/fCsYkX7SkV1OrS0rzNMTjdRlAY1TSLQ0UenBbH24ZZVGO3u3PQqboq25q7y0vFqHzHFdtuGt534pbwL59Ulhrd2Wqn3u26Hg1YBju5vdwfio+/4PrtP3zD1Fv3BfHcwYY1GOWGBPfYx6GvG119/NP3PMgxaHw2pfxgp3M2vfX8eeY2PUYzO8o8k7Sj59Zgkc3DOicjt0rFvMsttJzGFCxysXzFHr1yXN09NvT6F2jdmEpZpX2ZJPWlpDxSGC4mramRQmf6uB8ItxsOjQ5rtZN09nN64dhs4zMHvKY+OsQB4X4rURmVskWJtcknuT4k583s1Vs7xvIv3ZVfaiinlpOFVsw14LoaOypn7ImJyb2FiV0Tlp/MfaPWEubIBKv6lKUzbmHMLej3PXnmG89Wo0qehX62wl31bfZCnbuAl97bTY/RTCV0RKT/3HW947FoWI1Uv6kVGVQS5YnY5CCIlhelF37ESmRpkaOFHD2qM53Oycvxs0lXd5Xc6UNAc1vAINNYvjq/OFDWvHZgGeYzpxfvf1qY+ctFvEiqRDFa7Ok0aJbmzFw+vYE+aeSMUHRPD9v53TuKXY0j99krHRiRpyZ+3j08u7wcOBWORXPGJhZcVa1NT1lckaeHuvaVBw604jw3ljEm0Gm75bxCq/b55i4aRhmoo2eDk51cPGCLwAxq/TRBTPlKemRyOSxKCCOjrCLFoGbReumQhWErS35hSM0PdB4PlWsbrfu58ob7j7gpnjPFcdSq6eZQTmbidgTOatC4b4w9/GHR0Tscbp+klx3rzqjQFp1y+SPfDP/yX0ZqQh3mEHq2QjUG693aYNleWp5nWXLoVuvt7rDBwC14HKCIUeIpvqdxjIlI/PRUHEUb2lN0m0Y0z0FmUdwodJt+vrCY2/8v0bX/8+++8cihEbUyzt4pJakWBjlFt+/aPIrMuAKVCQKRw8PnrliItupjRmKE4OSMHRGgiUMmcrS1V5IX0n/RMPocFhKxQg3J8sygmXl6MyIwin0GP+nA5wbGOvqAn9vjW17T5zzmNjqGCLpBJWygsyx21BkLbo5blnSuoDU9y3E5bZmrb1gn8vXOKz75L4c+/tDcgjIyPjnO6YsMHjlsF2HkK+JyhcgLtXqY61iDHCReX1hSSillZsPgAcWThdyvt+yzWUTXoqaeBCzNLhVy8033+MnZj9x3+tipULXHDc4uo3HKkVMuJ0Up5z6nRIqCIqdYO+cYXK9YNrj/0sFov/FRCdYMsobFxfRJw+2cbrU++pUDRyf1q67YNTSxfbT2Tc7+1rlzUY21JAUZB934XXfUn8aMxJYd2kMtPX8qUE43/Go7+IM7Dy7VlLC0f4Szvf16qz5rs/TTKthGejxEuVBR1ZFn5sWDZ42rJ3cXxq/ZGRzHmoqQW0Y55zlkub5w06F8Pebico7M4VblyXlz9In58FP3P/mVB2sc7GQ4w0aRir6TKGnNoHD/os79d333LgNKibbMs8HB929k7xLBKBDM+vX4MyWtAihCYV2SY2oJe9zUoQeOTh855Q0d8YuDtXftPOtYViFvl3KWY3DRjKpEjA8ljcI4VyjVPPvMQu7QgvH46eDAafX0olItaqaWLzlFtnx47bmSw7q7CscxaZHbrtci4YSx/ZVHz37zQHDVVPnyHXu+f9cZw9QKjgOKnRzXM9HYxbAyN7a77sZn6sGBp5f+5dCRh053F7URY9cLnWrNLuTdmBOCGnZ6NH9OuAzjn2vv8lqAXhqm9NLB6MolmekMk1SMRGcKyv+1/erHNAi5CzkplIap1Kuxf2be65xZ/MzBEU0VpprYusoGJC74sphbUsVSbS69QJF2hM8tdloYM2qUL2hmYbhcX6grbb/I0ntHD9MTG7XILDgsCm3GupKwKKTl6fOtxebp6ODMmb/6As1Ejf1OpRxINVhVz4wr7M13Zxfm5xuNgGMdC+Wy6QwOcvVI/ZQbj8ee7/p1RQsdkw0mSdtf6df11xgFx2VIxZ+VXQZu0mf/Em+eAknFSIxKrjPdSE/2k7exYnP0PXeD+1GYCCuxCrm8zlWb9ZV7OGlLMmDkcy6TGwrOyuOib+MqgxttLFc1morDOeBU+65hJcHcYkFYeadimlqTCrjrcWY9TYX5Rs3iEpIo6OixxxEjw3u4jWa52VZ2bvPjcIG/yE84jA9GMKJsmlfGcmNj+bGk2agttpn612iVahzYzF03nMyvBDq789zY60TcsGcVV+4TX081q9Apo1waML1EMAoKZXt0LSgzhcpXLDKm6rS5ojsKvVip1mosvM9b7IRM95eqoENPT09Mq+EVNyGaVLHUtVyv7AqzFQWLLB31xN4898gXFurcScsV3EmlxLlmRtBpaylsc2Gzw0mlDQ7WpfeV6KVcMc/6pZU+meyWgR66TTwjf05NnFDBPGu5gRHTKXEiP2egjptMK7GRShUhZFOYctWe7nBOat/DHaGGZjK2QQAAGy9JREFUy9CJv/fjzOSw6TyXAkal0EHAutJfpadYGH63yalifhA4QyPpCfOxG7kdxxkEPVwd6/nc18nNSmAoXVwXOLrCObrd0FIUS+WeRQMQcVLzWW2uVBkSpSHHGbI0l2kl7gErGYXpdkvtdONGyyoNGCo3LnpRuzmUd2baNSb5GTZjyIfJ/nQR9MoOQb28K737K+TMEsGBPnHjDDZ60NLrGG4rtA3Ofi6G3HFr8hG5nYBTKIfXLeYlHHgxMSo/dPkESavA9G8UOqOAXIgNQM+cOQMpTCHDRjMzM1ylxXXZc3NzVJ2YWG4ofPWrX720tPTMM8+Mjo42GiFbPUnFvuGbb33ZgQMHiFCpsEI5fvGLbh4fHydJqVTi4k2ONX3ggQegBj/c/3Ts+LFbbrllz549AOuee+7hIqjx4eHp6bkdO3aQEcxM1syJiQnGaPkpTp+Owrbi6C1d4TJlGMPNzs7CGKCG5uLios2eJpHMLMwojrN7927XLR0+fNi2tWIx5xTYx9fI5zXDcf3lZVuzY28YyhCBVe5X5h5b7qbi06JEFI3c5c56PJyhwt3gyIFnOiawckprOviVroZJR76kf62Q0QKRpY2XcfiJWxvzgoVcTIw+J4VE39BBmgw3Il9ghFbAENg6deoUfsLRIsr7wz/8QyA1OTmJjsEHSuXYiB/6oR/68z//8z/+4z/+q7/6K5IwF/CpT30KgpBCzaTCf+ONN0KKJISAy+uvvx74kiPKfve73/2xj30MrHz9618nRE4lcCM3XEGN7F7wghcsLCzgJ/KP/MiP/N7v/d4b3/jGRx55BK5AEufwwNvJkyc/8IEP/OzP/izIILvp6em/+Zu/IQQO+RJ4/v3f//0v/MIvAH1e3XXXXdu2bbv88svh6tChQ3yfY2NjJ06coKQM3RMZy03x+Qm3w8PDUIDmpnabfh0+OpYKkAYGuAAvIMXPnTt3SlWhNpSHCoeGhn78x38ctWFB0S5W6h3veIc0KqQCeUCchD/xEz/x8pe//KUvfSkmE0CQBbDGJP/pn/7pTTfdBKavu+66N7/5zX/9138NvMAZRhcj/aM/+qMvfOELH330USzcbbfd9qY3velVr3oVWZCWDwPgvvWtb5VIJRDG8JMQZt71rneB9Q996EMvfvGLb7/99q997WuvfOUrgTWWGJZgjELBJKne9773wdhv//ZvE3769GnI8lVQOrAINT6JqakpPMeOHSM5jFGcTY1Oyfymt6OgDUdh0rpViGq1ij3bvn07esLyARfUiSJRGOBDne95z3s+/vGPo29qSXAGmFAnCSUmsEnQwfJh6gA0lCECTepW6k2ACAR/8zd/k1cE0gaQJhlSWLL7778ffGC9qBnvu+8+gMVbcAMQjx8/ftlll4HvT3/60yD1P/2n/wQDsMRboMZ3cvDgwZ//+Z8nO1h9+OGHSUK+FAQPthM6vHrb2972O7/zO7/7u7+L5aaAFAd8Q4RXfIGQOnLkCGAlhM+PJCSnvBhsqenN+9z0dhQ9YWPQBEBBoyCMEBR/xRVXUJXLWh5V4QAW9nX//v1veMMbCAeIv/zLvwy2SAIFIIXWqX/RJfqGCARx8l544qN7EH/llVeutCZdQEaVChrIFFCCTtoAJAQc0nqBNnAGHRoMkH3nO9+JRfynf/onYoJ1gEWm5EVy4AsQ8e/du3fXrl18D9CBK56Aj4LwJAm1P20AbDkAhSsJRKhBgWYAtcQ111wDRikX2RFOcQYHBzcvNDPONz1GUTyF4YlKUDyqohqlynvqqacwjdhF+lIoGxCDpMcee4zu0S/+4i9S89ISveGGG1A5qYAIdpG0AAsF/+qv/iqKP3v27Gc+8xmoARfSArj/8T/+B3S++MUv/vRP/zRIwuARH/RjsWCAeh/ogGZADCme4JjuF0CHN6zgvffe+3d/93d8OT/1Uz8F7KApeebjgR9y5Ce58zGQCj+kwDExgeN//+///YknnqBVAPgw1ZSL5GRKC4QPj44gWdM8pciy20Q0eINspunN69n0GMVUAAVwgG7AytGjR9ENRgsAfeUrX/n1X/91WWlKDQEs6sp9+/ZR7f7Gb/wGFTd6JT5pabyiZiJjCAHHe9/7XiJgKamFqUMBIibqwx/+MC1CIv/RH/3Rs88++xd/8RdU4gAFeIFdQMkTwNFbhwIgwzZjekE/7VQ6/rI3BrWXvOQlRABqoB8w8Qnh4JCsASjFwUEKiwhNYEo3C9R++ctfJj5FoBnK4ACFJdqv/MqvwOFDDz3E90PvnqxhgLTkTrlo52xeaGacXwrtUdmxwBZiEenwgpv/8l/+C8oDBCAPxYMwnqABfdMYxUMEam2agFg1TBcapdIHfLRiqbJ5omawheIxwzRh//Ef/5E4RKCfROeGjtQf/MEf0KwEB1hlOu9AFpyBIcweTzKCGfxEwNHwBcd/8id/glVmDAGw3nHHHYAVpJKKLAA6KuFLA6M4SgT+qMGxkZhkGg9kSjv4q1/9KvUDxYET6MP5Rz/6UUqETSUXkmBfaTcDaHigmYFZpSCZsjep56LZUVk/IlwJHZ7oCbnzXNcRX7rsrZQ4asBDQnQJELE9AAgVYrdoeoIJlMcrQCNtGz9/7dd+jR40FvQTn/gEgIAHMEEc9IoRovYEHCSHDsRBCe08OahJRqj/qquuAjQ0FegzveUtb+FLwABDARSSC3adjEAP4KNQkqW3v/3tsM3AJ98Plhg6DALgxyiSnExlExa2YYay8D1Qv+MhJhwCRL6Exx9//LOf/SzsATtZaqwsHxKfGT/lUCi5SIiTEB4oLCzhl4KV0pY/eW4Wd9Ew+lwJCL1iMEAJRgs/qkXBgANA8wQoOJSKknjLK/T0t3/7t2j993//9wlHozxpSgIs9I2ySQXQUS1kMUv0Yz73uc/Jbgo0UTxQ4y3q5wPAeEOBCp3kwBEK0MfO8YoQ4mPbsLIgnm4clfKDDz4IcfyMbsIPbCMHfjJ6D+ckl18gnwRNSUhRfUu7SDRasZSCJjKfDa0IQsia+ATCFSxBkBwpAj95S0H4bPDgICU9m/G5aTCKlNd1qEFaDpSKaqUxk7gkPjojBJ3hQT3yJ2byZ37mZ775zW9StwIOImDP0Ci2EEx85CMf+bEf+zEqYmBEAxToM5CEnQNP1LZ0p66++mpSMQxEawHbBjXIwgMQIQvYwIN1lF8IHS86OsCIRjAjplT6tBBoaWDjaZVCFuPNED04/smf/EngK3tU5AvUYI9vgLJQECjTwn7/+9//ute97rd+67f4qEA/nxzJ+VpwEtNkSmTgTnw88qdMLkN49nrkzw3+3PTtUcwVDnUyRoPKwQp2EYMEbrAxUk+oGfxRtwJWomEgsUP4abwyDoqmQZKsE7GIBDLKQ68IOoRTTYM5HA1WoPna1772537u58AHBGkI0qIFEMCUHME64wnykyAtDJA7xvXmm28GUlhW3kojR5uSTK+99lq66oTT96IP92d/9mc0VUkCKUZAKRTND3Lh+8EwUwSSM03FzAJj+AxCwRLhxIEZ8sLk8yXwbVA6vjT5kSCNDH8SqfKZBW4Kz79eLXCB2ZUAkiKTFRZaQdZ8+uty0k+4xAcQJPn85z8Ptuj8yr45aEBnIAZF4iECmgOCeLA9MgSY0qQDJdhIYmKNeOKgyXwPAH366aeJgImSLAEIqNFJB+J33nknCAAQJIcaWKQUpCUXPhj610QmnECwiDkka+hDh2LyZCYJ4PLZAHHiE0Jzgu8HmgCXVzAJNSK/5jWvYcgsndm3bRiGyMte9jI6T5IlAhEagbwiMh7ACpSZd0VisIdwMtH1eqT8JZHe8F7/qrfy54V/bnqMggPgiCYAE1DDD0bpKWMXUR5qQ+joA8liZcENfqKhWnoq9N+xRqSlQsew8YouESjEDz5ICFAgCAoljIgABdAAZUApEc9biMskUCMhyMD+8aTiBs3EhD7mUCIMGEGN+MThCSkY5jOQdTo/8ZOEV3wq9MCgI5mhLDJ3GMNDIMYS5kmCw8NPLDp0aA/AkmwM0POTqJLgk09CKEvm7/X0+nsTSv9FeW56jCI14Igi0Sh4wiyBPzq/oA0toleUgSOQOOADTKNFbCRqlrMywIgIhPMWVMm5GewWbzOVSFxChBC6ONg8Wc/yk0zRK2iWkcmFaIAGfkgFWV4BSp74icmTrGVkSUQmIYSfcAJASQ4z/KRoxIeUDKdE+GV5IYUfaEpSPCV9mgq8Ii3F5LuFOK8IkdEyDwQzf6+n178qifx54Z+bHqPYG3SG4DAbEgcoEpxhjVADKkSRUrUYPDolhKB+koAbqW9wDLKJTwReZR7ARwQUj5rBMVqXhhAIkik/pX3lJ5gjMtkRGXsprSYh5MUr7DcmU/IAQawd0bC4MCyZkQzQfycQTsgF9qCGB5wRDSIkJEfiS4DKdgvFhBP5ARAfcJMEkBECG8TEL90qtBHIZ8Bzbfi6gRcel705XkyMIndYQVjoT4qMEDy9/H3XfnS2blrwsW54v3z70QEB69LJ6K9Sdha+bqq1gVnyta/WDeHrkuFZQunJwlelkvzIOFkS4gB0PgaJeNSBByc9qyhcsJ+bvl9/vpLCFJ1Xkn7Y6tVrL0H54cmQXgT0i9+bttffS6c3vJ8fJPEqyyXzyPB+qTZF+CWL0UxJq9TQD3P97GI/O9RP9+SbZd3rOV/MrWL7O/6kLurN7jvGP3eE3tL1+s+d6nv09pLFaD959ZN4P+z2s7v92gYSixIuGWhgptffj7d/T3hGf63nvMgiHymitc/zovMcRr5kMZqpapWwzhdz/bDYL7w3X+mXz37xV7H37/zZm6MkJaF2vmR7U/X6z5fOcxL/ksVoP+n0w0q/8H50+mmuX1+kX/zzpd8vfvZtrPX0S9IvvJdV6eeZke2X6nsX/rzDaL86vZ+I++mmX/u1V8EZTYisG55FeK48GbeZ53zzzeJnnueKt++azvMOo/3q+n59GgYv1xVuP4xm34BESYaVfvTXJU7g+UKkN36WaT/i3zG8l1qv/zsm/F5EuGjjo+gSUUrNIQV+StcPQ/3q4n76ON/45yvcfvledI2eV0FkKXqfzAIwZ8FsCNMHyJDi8DVe3EJtLDuKsC6uOM5LwZs6MqLOHDLHSURuwEKtv8joQjKKpMhOPi9kvs/zvBA4lRg2kicOaVCPMci6AcVy0eyo/IilRHphyge9rpj6hZ8vuPvRWTfTcwSeb779SPXj57mi3y/fXvrwgBEFozS+mQvtl+RihV80jMoC90qKEH7201k/AZ1v/H50zjf8YuV7vnz2iw8opbQlQEEnGN2YhbpoGEVAOClB6Zc/z1dMGZF+ylgVfr70VyXPfp5vvlnCVZ5+/DxX9Fdll/2UiCR32QzFg/teZ5rlfl6ei4bRdblERois36t1w5HsuuHf68B++W5MNa+VBhjFSfPJW5qkrEyQDdO1kS9uyMbC6MWVxfMqdwlQOknAlO9KDvltTIz2tVsXS2EMzqW1zrfroKwmQohIU3Y86Y3y0fOUdpcnws3kK5OwLphwSUcm5CdjfiwxZv0vC5DJiKXHcmW01BARCCcy/QaIIwGyY6QQzwpH3zLYRCMEHZOj7Bfzk0wJ4SnfyifhmYdFmfilI+G3vemWI9ZKkxFZE4dywRXZsU4ZbnkLMzzhkJFL1tWTi8yOvKSTvJEwo5lF4BWBJKdQsCqLKflkcTSvUql9uxR4CCEJOSI9Kd6sCITjvyhu42IUoWQ6QDSID0WiJ8IRX4ZRlsHLmIgeD07KEX0QDQpyaTo/caiBaKAB5JGQZfksfZe6YZcIO5xILuOgVPQkFUkguUuyaQYrWRBN+vHgeCt1n8WUnuwnua+iIOkQgX1RZE3pyBHG2KDHU3JOCI5XRIM+6IExSYdnRhw/9HlFTKLxUyKSJ7sAeJIXr3AyU54S05J5IkiPJEguOCLIjGSgTChDLvBzw9X1mdwRCn75Ez86kyIGW8iIXXXf+MY3nnzySfYBox4CsToSefxE6HIxOTGhgLh5hRrQIkaUPXfssuAnRpRUABGkAgW0yxMDBgVAI20tRi4Dn2QG4hAkIeE4spA6lkxK9mRM+ZQaleHEwRGSPQmHNzaCSp7lNjq+KzjhSUYwQ2SKL0FDjvInHgKlIwQiRMBBh5/ICglQXnaVsDGLUkCNEN7iSCW5WvtELLCdcQ6pzL828oUJ2bgYlaLJBISqpJSRC1JGdjz53F/xilegTrYBARri8BbFoD8iA0FUDgR5gmmOCQHT6CDTEMmJRgjniHB+xO7duyVqebKribOi2JpHWqkJiMOM/E5IQmBGR0bg2Us8C5RFgGEZQhxC5JMQuIUO2OKJIxzHGbzsGcRxFAU5wgxmnvJSLs6SgBMQCez4tHjiJ4S3kCUXysuGKsqLPWb/3Qc/+EEpHN5KiUEfsGbsrfJI3ogjqfH2osN0w9X1EgTIBYVlTyl6pCZFhqqkIw4qQcESQATyUzbssE/gDwSQFiVBltOdUBhNOqCJ8uT5Nrt27eJ4MJ5gFJMM0NlTD0Y5mw6AQpYNouSCB4LQB7I072ADglK70JcenkTLwmWg5Bl/Fk2CgKd0clcqfHJ4CSeXcAIe7IEwWHr9618vD4mQ+VIKXkEnc5mIZF4pulewxU9eSYdwyEJWF+QiKVBXQA0GZBKwKz2EUAQc0fDLjKDGW/wylwv/3HB2FBEgHflELtLPT/wSi3gAH+HScgAd/JmIgWAmTeITE8iygR1jQ9sAAP3SL/3S/9/e/aVUzgRRAN+LbsId+OxefRFfBJciuI7vpweacO3rB8VM3QxUP4ROpf71qZNKbmR6Xl5e3t/f7eBsc3ubKNlS4e3tzSZKNquxuxMWMvSvkzHDP063IR7KcoL9zDlUQiXHgGS1wslBJgKtJRwnqh79iyNvQnNuu3Fzj2bbT9gNhSsh7u/vNUtBtVISCo48bIdMkhUdSwjztEyhyS2HguFqktk6WUjmKn2THLf6DcLTcRSCQcTECEAmXqoUUgPQDIJ+cA9GCpBJiEKfmtLGPM9rjdNGNDZaUmn726CC30wMvQDYUefp6cleTn6+YLmdHO3haFMd3FVs76/pnSsED5LhP6m6T8TFhpVGNNdRPnJOMjn+rL1NSmwg5fnulcPD2m8djdzOo3yGeUzWkjk01mL5lMyiF03JQIC+e8bchH5yMMHRJLAyXJP4XKeZUGZ1IWw7Pd2zHrIWn3pA1iQj8xyVLcMp3MEXBGlGbqI2qKnheVvFJ6xSKjvoesbREUXLzDcdRLRzk709uMJLCna211M5UUs1E0Uzc5Nwwic2mOCQOQ8IitaorN1ic+4HS0hKOTqVg+Ni1Zp4l+DNHlJeOUSxKZ/ufnd3Z3spm+zZ5VQI/fvoLYA4Bo2cSp5PI5Ng6JKsSCxEFKeSt3zenDoeTcxJIJYeHA8JkUskNxmn66OwAwRojEU4EvMUI3JHpzA1XDUPfOphmIM1b5CqAnRHdXp4ePAmSo6jWjId1PE90pZMHrLYSY4cXgP4Z4J8rqI7/4+Pj36gYAzSC7oiJu7/HpNGshXXctDRzzg/hizZC6h2LiWp+qSgwYui5WNYuMXQunKzBQpOrEhcDDZM5GzkJl/55N3DaeTf8Hzd1Wz5oe8SobhWRBKfa3WiLFe3mpyOoxdAQNMgXKg5DdCRpDwXVk7VmyaIsQr0Kq0empY+QaJgmKowJvZq1FN5+/j40MBMKFPzfQpB2QpHaHDrUvL5GfF3CScMOYm5Cc+iO2qfNhLzlBcRlSUmVQx2qit7mfYEMEdQhHOJraNBOT4DyDYBauRJPgqZMwFOlsY/GMW16q2T2wpPzVEFMEAJ1rSTVR7QB2s82yIIfTqxxQMFUGOFZ5VKKL+r+Xyog9ob397KJP5PJj+kkEbX9NlSK00Hok/CVXxKbBv3mjB5chVDuYWjbgNL0039t0xsn5+fXdI+bdnsmAc9aubzgibHA1dG6MVEPsa1fKJm1WvQXHPmQZIHPtNEry3hVvJ9gW+VzTEuKAFHEkBzyfyok6sXkpwqfFjIiecmjuZXiGe9jqXq+QMMdvqqT8cvKht8+kzjA6RXTz/kMdLv+sV1+Rh/qooWwpskMdVEKzXHVzlLVRSPe+3NWnx+0uZfX1/tiUdTW5WYO8cSpB2GOQarn1AEsWAY5YWh3mkuLhAExdF16aefG0rOyFFIKUZAAX2Ag28kC0c65r/URg0UAPoMUU1psdBu9k7JDfzglppLOpZf1njgcw8dXEEROpS1LpNjoGOGyapwdOegWtxiiQwxVY8nd0qONE4R121jw2iJSVieX6l/DwgEFhOr2ObALXlA4zMTx+hzg+vCmSy1rZ8bCk/H0YAYREBvRKKceTh6CTMyd1TILXypoquq6CnPhMSfjvCAPkNFWn6y0519ZfVUQuz0OquZaa4mNBE9xTY3CWu3cX8XYokV0XGUiY6OkVmFowxtcC5nQqsWxTuAtw76bhv6hNKTAB36iRWHR9yOOYSLK+iacO4GcHOKFe66ZFzzc/TZPD/dt6dr6wdfLimSXuIIfXUy2ZqAHjtZUcM5EwxwzGulCScqnU5GSJ8aXiIlppKoluFxr5w6jSN9ErYimmzjXhNeWPEmARHdP1zJTUSpfn5+Yoxbwu1EYoH+4iU3ryg0OUdQ6wpB+TSYk2iH29BeWqLGLdvcJCRWxK1AJAzL69oG/bPC03F0gZV1QjMT8p/DJZTaIkIZ+ornqmKgFzYbHp2OqpWiKjadFI8mq1xla6AFNUJpUCPJVRIm27i/C/lhy5VjNPkkNLBT13R7uCpbR0vzc94rsrkvr2GbuCtnzOYEs2V17UX5axnfgyG3WalwMGHLlYtOk4w7p7aumP+l4+k4+pfWOW7/XQRu/4X238VuMu9BYDjag/NEqSMwHK1jN5Y9CAxHe3CeKHUEhqN17MayB4HhaA/OE6WOwHC0jt1Y9iAwHO3BeaLUERiO1rEbyx4EhqM9OE+UOgLD0Tp2Y9mDwHC0B+eJUkdgOFrHbix7EBiO9uA8UeoIDEfr2I1lDwLD0R6cJ0odgeFoHbux7EFgONqD80SpIzAcrWM3lj0IDEd7cJ4odQSGo3XsxrIHgeFoD84TpY7AcLSO3Vj2IDAc7cF5otQRGI7WsRvLHgSGoz04T5Q6AsPROnZj2YPAcLQH54lSR2A4WsduLHsQGI724DxR6ggMR+vYjWUPAsPRHpwnSh2B4Wgdu7HsQWA42oPzRKkjMBytYzeWPQgMR3twnih1BIajdezGsgeB4WgPzhOljsBwtI7dWPYgMBztwXmi1BH4D172RPSnSBN/AAAAAElFTkSuQmCC;" vertex="1" parent="1">
          <mxGeometry x="280" y="135" width="100" height="100" as="geometry" />
        </mxCell>
        <mxCell id="O-t2B1Meo6mThZW-3IML-12" value="PC" style="text;html=1;align=center;verticalAlign=middle;whiteSpace=wrap;rounded=0;" vertex="1" parent="1">
          <mxGeometry x="302.5" y="90" width="57.5" height="20" as="geometry" />
        </mxCell>
        <mxCell id="O-t2B1Meo6mThZW-3IML-16" value="AtomS3" style="text;html=1;align=center;verticalAlign=middle;whiteSpace=wrap;rounded=0;" vertex="1" parent="1">
          <mxGeometry x="301.25" y="220" width="60" height="30" as="geometry" />
        </mxCell>
        <mxCell id="O-t2B1Meo6mThZW-3IML-18" value="" style="endArrow=classic;startArrow=classic;html=1;rounded=0;entryX=0;entryY=0.5;entryDx=0;entryDy=0;" edge="1" parent="1" source="O-t2B1Meo6mThZW-3IML-1" target="O-t2B1Meo6mThZW-3IML-14">
          <mxGeometry width="50" height="50" relative="1" as="geometry">
            <mxPoint x="200" y="230" as="sourcePoint" />
            <mxPoint x="250" y="180" as="targetPoint" />
          </mxGeometry>
        </mxCell>
        <mxCell id="O-t2B1Meo6mThZW-3IML-19" value="LAN" style="text;html=1;align=center;verticalAlign=middle;whiteSpace=wrap;rounded=0;" vertex="1" parent="1">
          <mxGeometry x="200" y="20" width="60" height="30" as="geometry" />
        </mxCell>
        <mxCell id="O-t2B1Meo6mThZW-3IML-21" value="" style="endArrow=classic;startArrow=classic;html=1;rounded=0;exitX=1;exitY=0.25;exitDx=0;exitDy=0;entryX=0;entryY=0.5;entryDx=0;entryDy=0;fillColor=#0050ef;strokeColor=#001DBC;" edge="1" parent="1" source="O-t2B1Meo6mThZW-3IML-14" target="O-t2B1Meo6mThZW-3IML-13">
          <mxGeometry width="50" height="50" relative="1" as="geometry">
            <mxPoint x="241.25" y="135" as="sourcePoint" />
            <mxPoint x="291.25" y="85" as="targetPoint" />
          </mxGeometry>
        </mxCell>
        <mxCell id="O-t2B1Meo6mThZW-3IML-22" value="" style="endArrow=classic;startArrow=classic;html=1;rounded=0;exitX=0;exitY=0.5;exitDx=0;exitDy=0;fillColor=#0050ef;strokeColor=#001DBC;" edge="1" parent="1" source="O-t2B1Meo6mThZW-3IML-15" target="O-t2B1Meo6mThZW-3IML-14">
          <mxGeometry width="50" height="50" relative="1" as="geometry">
            <mxPoint x="330" y="200" as="sourcePoint" />
            <mxPoint x="380" y="150" as="targetPoint" />
          </mxGeometry>
        </mxCell>
        <mxCell id="O-t2B1Meo6mThZW-3IML-23" value="IP: 172.20.10.5" style="text;html=1;align=center;verticalAlign=middle;whiteSpace=wrap;rounded=0;" vertex="1" parent="1">
          <mxGeometry x="275" y="235" width="110" height="30" as="geometry" />
        </mxCell>
        <mxCell id="O-t2B1Meo6mThZW-3IML-24" value="IP: 172.20.10.2" style="text;html=1;align=center;verticalAlign=middle;whiteSpace=wrap;rounded=0;" vertex="1" parent="1">
          <mxGeometry x="277.25" y="100" width="110" height="30" as="geometry" />
        </mxCell>
        <mxCell id="O-t2B1Meo6mThZW-3IML-25" value="IP: 172.20.10.1" style="text;html=1;align=center;verticalAlign=middle;whiteSpace=wrap;rounded=0;fillColor=default;" vertex="1" parent="1">
          <mxGeometry x="157.5" y="190" width="110" height="30" as="geometry" />
        </mxCell>
        <mxCell id="O-t2B1Meo6mThZW-3IML-4" value="スマホ" style="text;html=1;align=center;verticalAlign=middle;whiteSpace=wrap;rounded=0;fillColor=default;" vertex="1" parent="1">
          <mxGeometry x="183.75" y="170" width="57.5" height="30" as="geometry" />
        </mxCell>
        <mxCell id="O-t2B1Meo6mThZW-3IML-26" value="&lt;div style=&quot;text-align: left;&quot;&gt;&lt;span style=&quot;background-color: transparent; color: light-dark(rgb(0, 0, 0), rgb(255, 255, 255));&quot;&gt;・Cloudflare Tunnel&amp;nbsp;&lt;/span&gt;&lt;/div&gt;&lt;div&gt;・バックエンドサーバー&lt;/div&gt;&lt;div style=&quot;text-align: left;&quot;&gt;・クライアントアプリ&lt;/div&gt;" style="text;html=1;align=center;verticalAlign=middle;whiteSpace=wrap;rounded=0;dashed=1;strokeColor=default;" vertex="1" parent="1">
          <mxGeometry x="382.25" y="33" width="140" height="50" as="geometry" />
        </mxCell>
        <mxCell id="O-t2B1Meo6mThZW-3IML-27" value="WebサーバーとしてHTMLファイルを返す" style="text;html=1;align=center;verticalAlign=middle;whiteSpace=wrap;rounded=0;strokeColor=default;dashed=1;" vertex="1" parent="1">
          <mxGeometry x="387.25" y="190" width="130" height="40" as="geometry" />
        </mxCell>
        <mxCell id="O-t2B1Meo6mThZW-3IML-29" value="" style="endArrow=classic;startArrow=classic;html=1;rounded=0;entryX=0;entryY=0.5;entryDx=0;entryDy=0;fillColor=#008a00;strokeColor=#005700;" edge="1" parent="1">
          <mxGeometry width="50" height="50" relative="1" as="geometry">
            <mxPoint x="132" y="146" as="sourcePoint" />
            <mxPoint x="172" y="146" as="targetPoint" />
            <Array as="points">
              <mxPoint x="152" y="146" />
            </Array>
          </mxGeometry>
        </mxCell>
        <mxCell id="O-t2B1Meo6mThZW-3IML-33" value="" style="endArrow=classic;startArrow=classic;html=1;rounded=0;exitX=1;exitY=0.25;exitDx=0;exitDy=0;entryX=0;entryY=0.5;entryDx=0;entryDy=0;fillColor=#008a00;strokeColor=#005700;" edge="1" parent="1">
          <mxGeometry width="50" height="50" relative="1" as="geometry">
            <mxPoint x="243" y="102" as="sourcePoint" />
            <mxPoint x="280" y="50" as="targetPoint" />
          </mxGeometry>
        </mxCell>
        <mxCell id="O-t2B1Meo6mThZW-3IML-35" value="" style="endArrow=classic;startArrow=classic;html=1;rounded=0;entryX=0.927;entryY=-0.107;entryDx=0;entryDy=0;entryPerimeter=0;fillColor=#008a00;strokeColor=#005700;" edge="1" parent="1">
          <mxGeometry width="50" height="50" relative="1" as="geometry">
            <mxPoint x="330" y="150" as="sourcePoint" />
            <mxPoint x="329.92" y="123.38999999999996" as="targetPoint" />
          </mxGeometry>
        </mxCell>
        <mxCell id="O-t2B1Meo6mThZW-3IML-37" value="&lt;font style=&quot;color: rgb(51, 51, 255);&quot;&gt;→ デザリング&lt;/font&gt;" style="text;html=1;align=center;verticalAlign=middle;whiteSpace=wrap;rounded=0;" vertex="1" parent="1">
          <mxGeometry x="42.5" y="220" width="97.5" height="30" as="geometry" />
        </mxCell>
        <mxCell id="O-t2B1Meo6mThZW-3IML-38" value="&lt;font style=&quot;color: rgb(0, 102, 0);&quot;&gt;→ Cloudflare Tunnel&lt;/font&gt;" style="text;html=1;align=center;verticalAlign=middle;whiteSpace=wrap;rounded=0;" vertex="1" parent="1">
          <mxGeometry x="42.5" y="240" width="127.5" height="30" as="geometry" />
        </mxCell>
      </root>
    </mxGraphModel>
  </diagram>
</mxfile>
